Coordinates
version=1
nRows=9
nColumns=36
inDegrees=yes

Units are S.I. units (second, meters, Newtons, ...)
If the header above contains a line with 'inDegrees', this indicates whether rotational values are in degrees (yes) or radians (no).

endheader
time	pelvis_tilt	pelvis_list	pelvis_rotation	pelvis_tx	pelvis_ty	pelvis_tz	hip_flexion_r	hip_adduction_r	hip_rotation_r	knee_angle_r	knee_angle_r_beta	ankle_angle_r	subtalar_angle_r	mtp_angle_r	hip_flexion_l	hip_adduction_l	hip_rotation_l	knee_angle_l	knee_angle_l_beta	ankle_angle_l	subtalar_angle_l	mtp_angle_l	lumbar_extension	lumbar_bending	lumbar_rotation	arm_flex_r	arm_add_r	arm_rot_r	elbow_flex_r	pro_sup_r	arm_flex_l	arm_add_l	arm_rot_l	elbow_flex_l	pro_sup_l
      4.31666670	     -3.47652982	     15.37115763	     19.49033927	      0.68099410	      0.91701186	      0.02416075	     62.77203050	    -15.78534596	     18.45910469	     34.09187559	      0.59501548	     -3.50655570	      3.43298396	     -7.49999987	     36.13361053	     24.35489990	     -4.25606240	     53.51104876	      0.93394399	     27.73220794	    -10.17079442	     -7.49999987	    -38.57088316	    -12.73157191	    -11.92444496	     54.59727708	      6.92175906	     58.61832185	    119.53306296	     99.67972248	     79.38246680	     -0.79755059	     72.00520614	    122.75360279	     94.98780106
      4.33333330	     -4.51014979	     16.37598908	     20.27433386	      0.68091600	      0.90917863	      0.02480013	     64.81400991	    -16.89827516	     19.46560805	     34.88567322	      0.60886986	     -4.14853461	      3.47063840	     -7.49999987	     38.07767894	     25.52345473	     -5.15367850	     55.01332759	      0.96016370	     27.71320659	    -10.36502406	     -7.49999987	    -39.30436872	    -13.15478460	    -13.09787185	     54.95060622	      7.33272280	     58.94005577	    119.09879291	    101.30004961	     80.18833014	     -1.19158854	     72.96081982	    123.47596395	     95.85348238
      4.35000000	     -5.25745995	     17.24892913	     21.08759030	      0.67649326	      0.90507341	      0.02795324	     66.59140459	    -17.84898996	     20.45432914	     35.84814774	      0.62566821	     -4.68436308	      3.24100438	     -7.49999987	     39.97945201	     26.51058812	     -6.07851179	     56.70356922	      0.98966398	     27.55773799	    -10.84897375	     -7.49999987	    -40.53157811	    -13.43150430	    -14.02204361	     56.06135114	      7.35102062	     59.42024525	    118.69841814	     98.61498913	     81.65821698	     -1.40060841	     73.86315496	    123.38304816	     93.11997587
      4.36666670	     -6.27033478	     17.67223820	     22.03043257	      0.67150184	      0.89772978	      0.02998199	     68.56239316	    -18.62482189	     21.12492306	     36.87029608	      0.64350806	     -5.06217304	      3.01595500	     -7.49999987	     42.38038113	     27.18232708	     -6.90004653	     58.62181357	      1.02314366	     27.33533051	    -11.53651651	     -7.49999987	    -41.49502317	    -13.22161702	    -14.91671500	     57.73194858	      7.83073872	     58.78416456	    117.90786490	    103.01863435	     83.11373127	     -1.48892873	     74.05315406	    123.92051350	     94.25034046
      4.38333330	     -7.35866313	     18.04308499	     22.84098856	      0.67216722	      0.89071511	      0.02961057	     70.48014712	    -19.25851043	     21.86107248	     37.74386368	      0.65875469	     -5.42847212	      2.72911637	     -7.49999987	     44.70881121	     27.71707164	     -7.76636104	     60.37106816	      1.05367391	     27.21099889	    -12.01225610	     -7.49999987	    -42.22658259	    -13.11405622	    -15.57572852	     58.92540116	      7.88151612	     59.51962470	    117.71536128	     95.45098007	     84.47603768	     -1.59661695	     75.89455747	    124.16649078	     87.48106036
      4.40000000	     -8.40538063	     18.21671617	     23.74534228	      0.66188108	      0.88000826	      0.02832644	     72.61009351	    -19.84949216	     22.50591697	     38.83322210	      0.67776758	     -6.02953482	      2.43555779	     -7.49999987	     47.35265229	     28.11030361	     -8.75200564	     62.30454966	      1.08741953	     26.79539533	    -12.65974305	     -7.49999987	    -42.77498005	    -12.62895823	    -16.20388152	     60.76679149	      7.80947019	     58.76162356	    117.68649359	    102.54400407	     86.02517005	     -1.33511651	     75.27767505	    124.11826407	     94.03785805
      4.41666670	     -9.25692662	     18.34487574	     24.66569906	      0.65780462	      0.87305514	      0.03062945	     74.48242315	    -20.47743739	     23.04412081	     39.73721622	      0.69354526	     -6.37013722	      2.49798664	     -7.49999987	     49.81047483	     28.42267865	     -9.65957468	     64.21267298	      1.12072257	     26.24922686	    -13.38842292	     -7.49999987	    -43.41293802	    -12.05666592	    -17.08780248	     62.56807089	      8.11257859	     58.49297229	    117.24426050	    101.68257860	     87.71951048	     -1.71171221	     74.98236438	    124.51564419	     92.93877996
      4.43333330	    -10.08436030	     18.38846866	     25.42291489	      0.66333716	      0.86771097	      0.03299641	     76.13189738	    -20.90563284	     23.58878635	     40.43721062	      0.70576247	     -6.42537144	      2.66241155	     -7.49999987	     52.00734706	     28.55402794	    -10.44563297	     65.96775480	      1.15135452	     25.76278215	    -13.91348340	     -7.49999987	    -44.09761776	    -11.52855819	    -17.71718428	     62.98882695	      8.46300944	     58.90085323	    116.81515304	    101.51682610	     88.78234605	     -2.71139960	     75.22865420	    124.37311220	     93.02538907
      4.45000000	    -10.74167794	     18.45203258	     25.90752237	      0.65925293	      0.86098604	      0.03053513	     77.61926125	    -21.17043406	     24.20172691	     41.16302954	      0.71843040	     -6.27229204	      2.91723209	     -7.49999987	     53.95153151	     28.55812687	    -11.29727237	     67.52892606	      1.17860210	     25.32627831	    -14.31897793	     -7.49999987	    -44.73413840	    -11.07722465	    -17.97753482	     63.70944204	      8.34542453	     59.71824424	    116.80109974	     99.16627833	     89.23385433	     -3.04294918	     75.02648759	    124.49084036	     91.44316627
